<?xml version="1.0" standalone="no"?>
<!DOCTYPE svg PUBLIC "-//W3C//DTD SVG 20010904//EN"
 "http://www.w3.org/TR/2001/REC-SVG-20010904/DTD/svg10.dtd">
<svg version="1.0" xmlns="http://www.w3.org/2000/svg"
 width="652.000000pt" height="427.000000pt" viewBox="0 0 652.000000 427.000000"
 preserveAspectRatio="xMidYMid meet">

<g transform="translate(0.000000,427.000000) scale(0.100000,-0.100000)"
fill="#000000" stroke="none">
<path d="M2735 3246 c-31 -31 -31 -67 1 -148 18 -46 18 -48 -1 -72 -11 -13
-41 -50 -68 -82 -26 -33 -56 -78 -67 -101 -17 -36 -25 -43 -49 -43 -20 0 -40
-10 -60 -31 l-31 -31 0 -117 c0 -136 12 -163 79 -181 33 -9 43 -18 65 -65 15
-30 59 -89 98 -132 80 -88 98 -122 98 -188 0 -35 6 -52 25 -70 23 -24 29 -25
160 -25 131 0 137 1 160 25 14 13 25 31 25 40 0 11 11 15 40 15 29 0 40 -4 40
-15 0 -9 11 -27 25 -40 18 -19 35 -25 70 -25 l45 0 0 45 c0 41 -2 45 -24 45
-22 0 -25 5 -28 41 l-3 41 -127 2 -128 1 0 -42 0 -43 -94 0 -93 0 -6 49 c-8
68 -35 114 -111 194 -62 64 -126 172 -126 211 0 13 -11 16 -50 16 l-51 0 3 98
3 97 48 3 c26 2 47 8 47 14 0 32 71 147 122 199 58 59 58 59 58 119 0 34 -7
76 -15 95 l-14 35 27 -6 c41 -10 74 -29 101 -57 l23 -26 34 22 c19 12 34 27
34 33 0 19 -69 74 -119 96 -25 11 -67 22 -93 25 -41 5 -49 2 -73 -21z"/>
<path d="M3097 3183 c-2 -5 -2 -25 0 -45 5 -37 6 -38 49 -38 l44 0 0 45 0 45
-44 0 c-25 0 -47 -3 -49 -7z"/>
<path d="M3266 3174 c-3 -8 -6 -28 -6 -44 0 -23 5 -29 31 -34 52 -10 58 -7 65
30 8 42 1 49 -47 58 -29 5 -38 3 -43 -10z"/>
<path d="M3440 3146 c0 -2 -7 -20 -15 -40 -15 -35 -15 -36 14 -51 17 -8 37
-15 46 -15 17 0 48 60 37 72 -9 9 -82 40 -82 34z"/>
<path d="M3572 3030 l-22 -30 32 -30 c18 -16 36 -30 39 -30 4 0 18 15 33 34
l25 34 -34 26 c-42 33 -46 33 -73 -4z"/>
<path d="M3698 2922 c-16 -9 -28 -21 -28 -26 0 -9 39 -76 45 -76 7 0 75 42 75
46 0 12 -46 74 -55 74 -5 0 -22 -8 -37 -18z"/>
<path d="M3762 2773 c-16 -3 -21 -10 -18 -21 3 -9 8 -30 12 -45 6 -27 9 -28
43 -22 50 9 50 10 39 55 -11 42 -17 44 -76 33z"/>
<path d="M3725 2611 c-102 -25 -155 -93 -155 -201 l0 -60 -45 0 -45 0 0 -195
0 -195 280 0 280 0 0 195 0 195 -39 0 -38 0 -7 66 c-8 74 -16 96 -55 137 -46
50 -115 73 -176 58z m99 -110 c26 -22 46 -73 46 -116 l0 -35 -105 0 -105 0 0
54 c0 44 5 60 25 85 37 43 97 48 139 12z m126 -346 l0 -105 -190 0 -190 0 0
105 0 105 190 0 190 0 0 -105z"/>
<path d="M1270 1405 l0 -325 210 0 210 0 0 70 0 70 -130 0 -130 0 0 255 0 255
-80 0 -80 0 0 -325z"/>
<path d="M1772 1678 l3 -53 73 -3 72 -3 0 56 0 55 -76 0 -75 0 3 -52z"/>
<path d="M3050 1405 l0 -325 70 0 c64 0 70 2 70 20 0 21 0 21 28 0 53 -39 141
-46 202 -14 132 67 162 322 51 433 -64 64 -159 76 -239 30 -18 -10 -35 -19
-38 -19 -2 0 -4 45 -4 100 l0 100 -70 0 -70 0 0 -325z m314 35 c29 -35 41
-100 31 -166 -11 -77 -73 -120 -136 -94 -82 34 -93 223 -16 270 48 30 90 26
121 -10z"/>
<path d="M4740 1405 l0 -325 70 0 70 0 0 73 c0 68 2 75 30 102 16 16 31 27 33
24 2 -2 30 -48 62 -101 l57 -98 84 0 84 0 -94 155 -94 154 80 86 80 85 -85 0
-85 0 -76 -82 -76 -81 0 166 0 167 -70 0 -70 0 0 -325z"/>
<path d="M2654 1570 c-107 -25 -174 -125 -174 -259 0 -162 115 -265 275 -248
29 3 68 13 86 22 39 20 119 94 119 110 0 7 -23 22 -51 35 l-51 24 -21 -28
c-22 -31 -72 -56 -112 -56 -33 0 -83 47 -94 88 l-10 32 176 0 176 0 -6 56 c-7
70 -49 157 -88 185 -59 42 -149 58 -225 39z m141 -125 c14 -13 25 -33 25 -45
0 -19 -6 -20 -95 -20 -108 0 -118 9 -66 61 39 39 100 41 136 4z"/>
<path d="M3772 1570 c-78 -16 -125 -59 -134 -120 -3 -24 -1 -25 60 -28 59 -3
65 -1 92 28 35 37 81 41 104 8 23 -32 20 -57 -6 -63 -13 -2 -54 -11 -91 -20
-83 -18 -117 -35 -150 -74 -70 -84 -26 -206 83 -230 54 -12 120 0 162 30 l28
20 0 -20 c0 -19 6 -21 68 -21 l67 0 -5 199 c-6 223 -10 239 -81 273 -42 20
-140 29 -197 18z m128 -320 c-8 -29 -20 -47 -43 -60 -41 -25 -62 -25 -87 0
-23 23 -24 30 -7 54 14 19 140 68 145 56 2 -5 -2 -27 -8 -50z"/>
<path d="M4418 1570 c-20 -4 -48 -14 -62 -24 -23 -14 -26 -14 -26 -1 0 12 -14
15 -75 15 l-75 0 0 -240 0 -240 69 0 69 0 4 171 c3 166 4 171 27 190 34 27 75
24 100 -7 19 -25 21 -40 21 -190 l0 -164 70 0 70 0 0 200 c0 220 -6 247 -58
273 -36 19 -89 25 -134 17z"/>
<path d="M1770 1320 l0 -240 75 0 75 0 0 240 0 240 -75 0 -75 0 0 -240z"/>
<path d="M2060 1323 l77 -238 77 0 78 0 69 210 c37 116 71 222 75 238 l6 27
-71 0 -70 0 -10 -37 c-6 -21 -24 -92 -40 -158 -34 -139 -29 -142 -82 63 l-33
132 -77 0 -76 0 77 -237z"/>
</g>
</svg>
